<svg id="Layer_1" data-name="Layer 1" xmlns="http://www.w3.org/2000/svg" viewBox="0 0 542.06 351.35"><defs><style>.cls-1{fill:#231f20;}.cls-2{fill:#bf2231;}</style></defs><path class="cls-1" d="M357.41,393.16h-23.9v4.77q0,28.68,31.83,28.68h6.41L367,441h-1.63q-46.17,0-46.17-43v-4.77h-9.56l4.78-14.34h57.36v19.11l-14.34,4.78Z" transform="translate(-149.91 -89.6)"/><path class="cls-1" d="M438.66,441h-6.4q-46.17,0-46.17-43v-4.77h-9.56l4.78-14.34h19.11v19.11q0,24.85,23.9,28.16V378.82h14.34Z" transform="translate(-149.91 -89.6)"/><path class="cls-1" d="M462.56,426.61V441H448.22V378.82h14.34Z" transform="translate(-149.91 -89.6)"/><path class="cls-1" d="M500.79,441H472.12l4.78-14.34h23.89q9.57,0,9.56-9.56H472.12V402.71q0-23.9,23.89-23.89h28.68l-4.78,14.34H496q-9.56,0-9.55,9.55h38.23v14.34Q524.69,440.95,500.79,441Z" transform="translate(-149.91 -89.6)"/><path class="cls-1" d="M548.59,426.61V441H534.25V378.82h14.34Z" transform="translate(-149.91 -89.6)"/><path class="cls-1" d="M620.28,378.82v47.79h9.56L625.06,441h-4.78q-14.34,0-14.34-14.34V393.2q-28.68,0-28.67,23.8v19.17L562.93,441V378.82h14.34v7.69q10.51-7.69,28.67-7.69Z" transform="translate(-149.91 -89.6)"/><path class="cls-1" d="M653.74,402.71H692l-4.78,14.34H653.74q0,9.57,9.56,9.56H692L687.2,441H663.3q-23.89,0-23.9-23.9h-9.56l4.78-14.34h4.78v-9.55h-9.56l4.78-14.34H692l-4.78,14.34H653.74Z" transform="translate(-149.91 -89.6)"/><path class="cls-1" d="M281.32,195.65V305.16h21.9l-11,32.85H281.32q-32.85,0-32.85-32.85V228.61q-65.7-.11-65.7,54.54v43.91L149.91,338V195.65h32.86v17.64q24.09-17.64,65.7-17.64Z" transform="translate(-149.91 -89.6)"/><path class="cls-1" d="M386.27,195.65h43.8V338H397.22v-.11l-54.76.11q-32.85,0-32.85-32.85V195.65h43.8v-11l32.86-10.95Zm-43.81,32.86v76.65l54.76-.11V228.51Z" transform="translate(-149.91 -89.6)"/><path class="cls-1" d="M295.36,403.89c0,1.77-2.36,3.2-5.18,3.18l-136.39-1c-2.17,0-3.88-1.13-3.88-2.55l0-.63c0-1.38,1.71-2.51,3.84-2.55l136.46-3.12a6.78,6.78,0,0,1,3.84,1,2.65,2.65,0,0,1,1.36,2.16Z" transform="translate(-149.91 -89.6)"/><path class="cls-1" d="M150.4,421.62c0,1.77,2.36,3.2,5.18,3.18l136.38-1c2.18,0,3.88-1.14,3.88-2.56v-.63c0-1.38-1.71-2.5-3.84-2.55l-136.46-3.11a6.75,6.75,0,0,0-3.85,1,2.67,2.67,0,0,0-1.35,2.17Z" transform="translate(-149.91 -89.6)"/><path class="cls-1" d="M592,101.59a7.46,7.46,0,0,0-2.73-5.08l-6.61-5.31A7.36,7.36,0,0,0,578,89.6a8.38,8.38,0,0,0-6.67,3.48l-42.92,58.3.91-27.65a8.8,8.8,0,0,0-2.37-6.41,7.23,7.23,0,0,0-5.23-2.26l-8.58.12c-4.28,0-7.72,3.93-7.67,8.64l.63,57.87-62,84.19a6.35,6.35,0,0,0,1,8.76l1.15.93a6.12,6.12,0,0,0,3.76,1.3,6.51,6.51,0,0,0,5.06-2.46L506.45,211,508,351.37a6.31,6.31,0,0,0,6.18,6.48l1.51,0a6.45,6.45,0,0,0,6.16-6.42l5.48-166.14,62.74-77.39A8.65,8.65,0,0,0,592,101.59Z" transform="translate(-149.91 -89.6)"/><circle class="cls-2" cx="461.71" cy="173.99" r="80.35"/><rect class="cls-1" x="301.32" y="215.45" width="32.96" height="32.96"/></svg>
